STARTFONT 2.1
FONT -FontForge-Righteous-Book-R-Normal--14-140-72-72-P-75-ISO10646-1
SIZE 14 72 72
FONTBOUNDINGBOX 17 18 -2 -4
COMMENT "Generated by fontforge, http://fontforge.sourceforge.net"
COMMENT "Copyright (c) 2011 by Brian J. Bonislawsky DBA Astigmatic (AOETI) (astigma@astigmatic.com), with ReservedFont Name "Righteous""
STARTPROPERTIES 39
FOUNDRY "FontForge"
FAMILY_NAME "Righteous"
WEIGHT_NAME "Book"
SLANT "R"
SETWIDTH_NAME "Normal"
ADD_STYLE_NAME ""
PIXEL_SIZE 14
POINT_SIZE 140
RESOLUTION_X 72
RESOLUTION_Y 72
SPACING "P"
AVERAGE_WIDTH 75
CHARSET_REGISTRY "ISO10646"
CHARSET_ENCODING "1"
FONTNAME_REGISTRY ""
CHARSET_COLLECTIONS "ISO8859-2 ISO8859-9 ISO8859-4 ISO10646-1"
FONT_NAME "Righteous-Regular"
FACE_NAME "Righteous"
COPYRIGHT "Copyright (c) 2011 by Brian J. Bonislawsky DBA Astigmatic (AOETI) (astigma@astigmatic.com), with ReservedFont Name "Righteous""
FONT_VERSION "1.000"
FONT_ASCENT 11
FONT_DESCENT 3
UNDERLINE_POSITION -2
UNDERLINE_THICKNESS 1
X_HEIGHT 6
CAP_HEIGHT 9
RAW_ASCENT 799
RAW_DESCENT 200
NORM_SPACE 4
RELATIVE_WEIGHT 40
RELATIVE_SETWIDTH 50
SUPERSCRIPT_X 0
SUPERSCRIPT_Y 6
SUPERSCRIPT_SIZE 9
SUBSCRIPT_X 0
SUBSCRIPT_Y 1
SUBSCRIPT_SIZE 9
AVG_LOWERCASE_WIDTH 74
AVG_UPPERCASE_WIDTH 88
ENDPROPERTIES
CHARS 372
STARTCHAR space
ENCODING 32
SWIDTH 279 0
DWIDTH 4 0
BBX 1 1 0 0
BITMAP
00
ENDCHAR
STARTCHAR exclam
ENCODING 33
SWIDTH 274 0
DWIDTH 4 0
BBX 2 10 1 0
BITMAP
C0
C0
C0
C0
C0
C0
C0
C0
C0
C0
ENDCHAR
STARTCHAR quotedbl
ENCODING 34
SWIDTH 409 0
DWIDTH 6 0
BBX 4 3 1 7
BITMAP
F0
F0
B0
ENDCHAR
STARTCHAR numbersign
ENCODING 35
SWIDTH 561 0
DWIDTH 8 0
BBX 6 6 1 2
BITMAP
2C
FC
FC
58
F8
D0
ENDCHAR
STARTCHAR dollar
ENCODING 36
SWIDTH 458 0
DWIDTH 6 0
BBX 5 10 1 0
BITMAP
20
20
F8
F8
F0
F8
F8
F0
20
20
ENDCHAR
STARTCHAR percent
ENCODING 37
SWIDTH 685 0
DWIDTH 10 0
BBX 9 10 0 0
BITMAP
7100
5300
D200
5400
7C00
0B00
1F80
1480
3680
2380
ENDCHAR
STARTCHAR ampersand
ENCODING 38
SWIDTH 485 0
DWIDTH 7 0
BBX 5 10 1 0
BITMAP
20
38
F8
80
F0
F0
80
F8
78
20
ENDCHAR
STARTCHAR quotesingle
ENCODING 39
SWIDTH 238 0
DWIDTH 3 0
BBX 2 3 1 7
BITMAP
C0
C0
80
ENDCHAR
STARTCHAR parenleft
ENCODING 40
SWIDTH 351 0
DWIDTH 5 0
BBX 3 12 1 -1
BITMAP
60
E0
C0
C0
C0
80
80
C0
C0
C0
60
60
ENDCHAR
STARTCHAR parenright
ENCODING 41
SWIDTH 351 0
DWIDTH 5 0
BBX 3 12 1 -1
BITMAP
C0
C0
60
60
60
60
60
60
60
60
C0
C0
ENDCHAR
STARTCHAR asterisk
ENCODING 42
SWIDTH 589 0
DWIDTH 8 0
BBX 7 8 1 4
BITMAP
30
30
FC
FE
78
78
EC
48
ENDCHAR
STARTCHAR plus
ENCODING 43
SWIDTH 485 0
DWIDTH 7 0
BBX 5 6 1 2
BITMAP
60
60
F8
F8
60
60
ENDCHAR
STARTCHAR comma
ENCODING 44
SWIDTH 264 0
DWIDTH 4 0
BBX 2 3 1 -1
BITMAP
C0
C0
40
ENDCHAR
STARTCHAR hyphen
ENCODING 45
SWIDTH 528 0
DWIDTH 7 0
BBX 6 2 1 4
BITMAP
FC
FC
ENDCHAR
STARTCHAR period
ENCODING 46
SWIDTH 263 0
DWIDTH 4 0
BBX 2 2 1 0
BITMAP
C0
C0
ENDCHAR
STARTCHAR slash
ENCODING 47
SWIDTH 490 0
DWIDTH 7 0
BBX 5 10 1 0
BITMAP
18
18
18
30
30
60
60
C0
C0
C0
ENDCHAR
STARTCHAR zero
ENCODING 48
SWIDTH 642 0
DWIDTH 9 0
BBX 7 10 1 0
BITMAP
38
FE
C6
C6
82
82
C6
C6
FE
7C
ENDCHAR
STARTCHAR one
ENCODING 49
SWIDTH 317 0
DWIDTH 4 0
BBX 2 10 1 0
BITMAP
C0
C0
40
40
40
40
40
40
40
40
ENDCHAR
STARTCHAR two
ENCODING 50
SWIDTH 570 0
DWIDTH 8 0
BBX 6 10 1 0
BITMAP
F8
FC
0C
0C
7C
F8
C0
C0
FC
FC
ENDCHAR
STARTCHAR three
ENCODING 51
SWIDTH 586 0
DWIDTH 8 0
BBX 7 10 1 0
BITMAP
F8
FC
0C
06
7C
7C
0C
0E
FC
F8
ENDCHAR
STARTCHAR four
ENCODING 52
SWIDTH 630 0
DWIDTH 9 0
BBX 8 10 0 0
BITMAP
60
66
66
66
66
66
7F
FF
06
06
ENDCHAR
STARTCHAR five
ENCODING 53
SWIDTH 585 0
DWIDTH 8 0
BBX 7 10 1 0
BITMAP
FC
FC
C0
C0
FC
FC
06
06
FC
F8
ENDCHAR
STARTCHAR six
ENCODING 54
SWIDTH 615 0
DWIDTH 9 0
BBX 7 10 1 0
BITMAP
30
60
E0
FC
FE
C6
C6
C6
FE
7C
ENDCHAR
STARTCHAR seven
ENCODING 55
SWIDTH 516 0
DWIDTH 7 0
BBX 7 10 0 0
BITMAP
FE
FE
0C
0C
0C
18
18
18
30
30
ENDCHAR
STARTCHAR eight
ENCODING 56
SWIDTH 618 0
DWIDTH 9 0
BBX 7 10 1 0
BITMAP
78
FC
C6
CC
7C
FE
C6
86
EE
7C
ENDCHAR
STARTCHAR nine
ENCODING 57
SWIDTH 616 0
DWIDTH 9 0
BBX 8 10 0 0
BITMAP
3C
7E
63
C3
63
67
7F
06
0E
1C
ENDCHAR
STARTCHAR colon
ENCODING 58
SWIDTH 276 0
DWIDTH 4 0
BBX 2 6 1 0
BITMAP
C0
C0
00
00
C0
C0
ENDCHAR
STARTCHAR semicolon
ENCODING 59
SWIDTH 276 0
DWIDTH 4 0
BBX 2 7 1 -1
BITMAP
C0
C0
00
00
C0
C0
40
ENDCHAR
STARTCHAR less
ENCODING 60
SWIDTH 478 0
DWIDTH 7 0
BBX 5 8 1 1
BITMAP
18
30
60
C0
E0
70
38
10
ENDCHAR
STARTCHAR equal
ENCODING 61
SWIDTH 539 0
DWIDTH 8 0
BBX 6 4 1 3
BITMAP
FC
FC
00
FC
ENDCHAR
STARTCHAR greater
ENCODING 62
SWIDTH 478 0
DWIDTH 7 0
BBX 5 7 1 2
BITMAP
C0
E0
70
38
30
E0
C0
ENDCHAR
STARTCHAR question
ENCODING 63
SWIDTH 603 0
DWIDTH 8 0
BBX 7 10 1 0
BITMAP
F8
FC
06
06
1E
3C
60
60
60
60
ENDCHAR
STARTCHAR at
ENCODING 64
SWIDTH 629 0
DWIDTH 9 0
BBX 7 8 1 0
BITMAP
10
7C
CE
BA
AA
BE
C0
70
ENDCHAR
STARTCHAR A
ENCODING 65
SWIDTH 673 0
DWIDTH 9 0
BBX 8 10 1 0
BITMAP
38
7E
E6
C3
C3
C3
FF
FF
C3
C3
ENDCHAR
STARTCHAR B
ENCODING 66
SWIDTH 666 0
DWIDTH 9 0
BBX 8 10 1 0
BITMAP
FC
FE
C3
C3
FE
FE
C3
C3
FE
FC
ENDCHAR
STARTCHAR C
ENCODING 67
SWIDTH 640 0
DWIDTH 9 0
BBX 9 10 0 0
BITMAP
1F00
3F80
7100
6000
C000
C000
6000
6100
3F00
1F00
ENDCHAR
STARTCHAR D
ENCODING 68
SWIDTH 653 0
DWIDTH 9 0
BBX 8 10 1 0
BITMAP
F8
FC
CE
C7
C3
C3
C7
C6
FC
F8
ENDCHAR
STARTCHAR E
ENCODING 69
SWIDTH 578 0
DWIDTH 8 0
BBX 7 10 1 0
BITMAP
FE
FE
C0
C0
F8
F8
C0
C0
FE
FE
ENDCHAR
STARTCHAR F
ENCODING 70
SWIDTH 562 0
DWIDTH 8 0
BBX 7 10 1 0
BITMAP
FE
FE
C0
C0
F8
F8
C0
C0
C0
C0
ENDCHAR
STARTCHAR G
ENCODING 71
SWIDTH 665 0
DWIDTH 9 0
BBX 9 10 0 0
BITMAP
1E00
3F80
7100
6000
C000
C180
6180
6180
3F80
1F00
ENDCHAR
STARTCHAR H
ENCODING 72
SWIDTH 689 0
DWIDTH 10 0
BBX 8 10 1 0
BITMAP
C3
C3
C3
C3
FF
FF
C3
C3
C3
C3
ENDCHAR
STARTCHAR I
ENCODING 73
SWIDTH 270 0
DWIDTH 4 0
BBX 2 10 1 0
BITMAP
C0
C0
C0
C0
C0
C0
C0
C0
C0
C0
ENDCHAR
STARTCHAR J
ENCODING 74
SWIDTH 416 0
DWIDTH 6 0
BBX 5 10 0 0
BITMAP
18
18
18
18
18
18
18
38
F0
E0
ENDCHAR
STARTCHAR K
ENCODING 75
SWIDTH 625 0
DWIDTH 9 0
BBX 8 10 1 0
BITMAP
C7
C6
CC
D8
F8
F8
EC
CC
C6
C6
ENDCHAR
STARTCHAR L
ENCODING 76
SWIDTH 562 0
DWIDTH 8 0
BBX 7 10 1 0
BITMAP
C0
C0
C0
C0
C0
C0
C0
C0
FE
FE
ENDCHAR
STARTCHAR M
ENCODING 77
SWIDTH 819 0
DWIDTH 11 0
BBX 10 10 1 0
BITMAP
7700
FF80
CCC0
CCC0
CCC0
CCC0
CCC0
CCC0
CCC0
CCC0
ENDCHAR
STARTCHAR N
ENCODING 78
SWIDTH 689 0
DWIDTH 10 0
BBX 8 10 1 0
BITMAP
C3
E3
E3
F3
FB
DB
CF
CF
C7
C7
ENDCHAR
STARTCHAR O
ENCODING 79
SWIDTH 777 0
DWIDTH 11 0
BBX 11 10 0 0
BITMAP
1E00
3F80
71C0
60C0
C0C0
C060
60C0
61C0
3F80
1F00
ENDCHAR
STARTCHAR P
ENCODING 80
SWIDTH 642 0
DWIDTH 9 0
BBX 8 10 1 0
BITMAP
F8
FE
C6
C3
C3
C7
FE
FC
C0
C0
ENDCHAR
STARTCHAR Q
ENCODING 81
SWIDTH 777 0
DWIDTH 11 0
BBX 11 12 0 -2
BITMAP
1E00
3F80
71C0
60C0
C0C0
C060
60C0
61C0
3F80
1F00
0300
0180
ENDCHAR
STARTCHAR R
ENCODING 82
SWIDTH 651 0
DWIDTH 9 0
BBX 8 10 1 0
BITMAP
F8
FE
C6
C3
C3
C6
FE
FC
CC
C6
ENDCHAR
STARTCHAR S
ENCODING 83
SWIDTH 610 0
DWIDTH 9 0
BBX 8 10 0 0
BITMAP
3F
7F
E0
C0
7E
3F
03
03
7F
7E
ENDCHAR
STARTCHAR T
ENCODING 84
SWIDTH 578 0
DWIDTH 8 0
BBX 8 10 0 0
BITMAP
FF
FF
18
18
18
18
18
18
18
18
ENDCHAR
STARTCHAR U
ENCODING 85
SWIDTH 673 0
DWIDTH 9 0
BBX 8 10 1 0
BITMAP
C3
C3
C3
C3
C3
C3
C3
C6
7E
3C
ENDCHAR
STARTCHAR V
ENCODING 86
SWIDTH 602 0
DWIDTH 8 0
BBX 8 10 0 0
BITMAP
C3
E3
67
66
76
36
3C
3C
1C
18
ENDCHAR
STARTCHAR W
ENCODING 87
SWIDTH 819 0
DWIDTH 11 0
BBX 10 10 1 0
BITMAP
CCC0
CCC0
CCC0
CCC0
CCC0
CCC0
CCC0
CCC0
FF80
7F80
ENDCHAR
STARTCHAR X
ENCODING 88
SWIDTH 608 0
DWIDTH 9 0
BBX 8 10 0 0
BITMAP
E3
67
76
3C
1C
1C
3C
36
67
E3
ENDCHAR
STARTCHAR Y
ENCODING 89
SWIDTH 620 0
DWIDTH 9 0
BBX 8 10 0 0
BITMAP
C3
C3
C3
C3
63
7E
3C
18
18
18
ENDCHAR
STARTCHAR Z
ENCODING 90
SWIDTH 586 0
DWIDTH 8 0
BBX 8 10 0 0
BITMAP
FF
FE
0E
0C
1C
18
38
30
7F
7F
ENDCHAR
STARTCHAR bracketleft
ENCODING 91
SWIDTH 380 0
DWIDTH 5 0
BBX 4 12 1 -1
BITMAP
F0
F0
C0
C0
C0
C0
C0
C0
C0
C0
F0
F0
ENDCHAR
STARTCHAR backslash
ENCODING 92
SWIDTH 490 0
DWIDTH 7 0
BBX 5 10 1 0
BITMAP
C0
C0
C0
60
60
30
30
30
18
18
ENDCHAR
STARTCHAR bracketright
ENCODING 93
SWIDTH 380 0
DWIDTH 5 0
BBX 3 12 1 -1
BITMAP
E0
E0
60
60
60
60
60
60
60
60
E0
E0
ENDCHAR
STARTCHAR asciicircum
ENCODING 94
SWIDTH 293 0
DWIDTH 4 0
BBX 4 2 0 7
BITMAP
60
D0
ENDCHAR
STARTCHAR underscore
ENCODING 95
SWIDTH 598 0
DWIDTH 8 0
BBX 6 2 1 -3
BITMAP
FC
FC
ENDCHAR
STARTCHAR grave
ENCODING 96
SWIDTH 225 0
DWIDTH 3 0
BBX 3 2 0 7
BITMAP
E0
60
ENDCHAR
STARTCHAR a
ENCODING 97
SWIDTH 607 0
DWIDTH 9 0
BBX 8 8 0 0
BITMAP
18
7F
67
C3
C3
E7
7F
3D
ENDCHAR
STARTCHAR b
ENCODING 98
SWIDTH 597 0
DWIDTH 8 0
BBX 7 10 1 0
BITMAP
80
80
90
FC
CE
C6
86
C6
FC
78
ENDCHAR
STARTCHAR c
ENCODING 99
SWIDTH 521 0
DWIDTH 7 0
BBX 7 8 0 0
BITMAP
18
7E
66
C0
C0
E0
7E
3C
ENDCHAR
STARTCHAR d
ENCODING 100
SWIDTH 606 0
DWIDTH 9 0
BBX 8 10 0 0
BITMAP
03
03
1B
7F
67
C3
C3
E7
7F
3D
ENDCHAR
STARTCHAR e
ENCODING 101
SWIDTH 524 0
DWIDTH 7 0
BBX 7 8 0 0
BITMAP
18
7E
6E
CC
D8
70
7E
3C
ENDCHAR
STARTCHAR f
ENCODING 102
SWIDTH 395 0
DWIDTH 6 0
BBX 6 11 0 0
BITMAP
1C
3C
60
60
F8
F8
60
60
60
60
60
ENDCHAR
STARTCHAR g
ENCODING 103
SWIDTH 607 0
DWIDTH 9 0
BBX 8 11 0 -3
BITMAP
18
7F
67
C3
C3
E7
7F
3F
07
1E
1C
ENDCHAR
STARTCHAR h
ENCODING 104
SWIDTH 562 0
DWIDTH 8 0
BBX 6 10 1 0
BITMAP
C0
C0
C0
F8
FC
CC
CC
CC
CC
CC
ENDCHAR
STARTCHAR i
ENCODING 105
SWIDTH 235 0
DWIDTH 3 0
BBX 3 11 0 0
BITMAP
40
E0
60
00
60
60
60
60
60
60
60
ENDCHAR
STARTCHAR j
ENCODING 106
SWIDTH 237 0
DWIDTH 3 0
BBX 5 14 -2 -3
BITMAP
10
38
18
00
18
18
18
18
18
18
18
30
F0
C0
ENDCHAR
STARTCHAR k
ENCODING 107
SWIDTH 539 0
DWIDTH 8 0
BBX 6 10 1 0
BITMAP
C0
C0
C0
CC
D8
F0
F8
F8
CC
CC
ENDCHAR
STARTCHAR l
ENCODING 108
SWIDTH 235 0
DWIDTH 3 0
BBX 2 10 1 0
BITMAP
C0
C0
C0
C0
C0
C0
C0
C0
C0
C0
ENDCHAR
STARTCHAR m
ENCODING 109
SWIDTH 762 0
DWIDTH 11 0
BBX 9 7 1 0
BITMAP
FF00
DD80
D980
D980
D980
D980
D980
ENDCHAR
STARTCHAR n
ENCODING 110
SWIDTH 562 0
DWIDTH 8 0
BBX 6 7 1 0
BITMAP
F8
FC
CC
CC
CC
CC
CC
ENDCHAR
STARTCHAR o
ENCODING 111
SWIDTH 579 0
DWIDTH 8 0
BBX 8 8 0 0
BITMAP
18
7E
66
C3
C3
E3
7E
3C
ENDCHAR
STARTCHAR p
ENCODING 112
SWIDTH 608 0
DWIDTH 9 0
BBX 7 11 1 -3
BITMAP
10
FC
EE
C6
C6
C6
FE
FC
C0
C0
C0
ENDCHAR
STARTCHAR q
ENCODING 113
SWIDTH 607 0
DWIDTH 9 0
BBX 8 11 0 -3
BITMAP
18
7F
67
C3
C3
E7
7F
3F
03
03
03
ENDCHAR
STARTCHAR r
ENCODING 114
SWIDTH 414 0
DWIDTH 6 0
BBX 5 7 1 0
BITMAP
F8
F8
C0
C0
C0
C0
C0
ENDCHAR
STARTCHAR s
ENCODING 115
SWIDTH 523 0
DWIDTH 7 0
BBX 7 7 0 0
BITMAP
7E
7E
78
7E
06
FE
FC
ENDCHAR
STARTCHAR t
ENCODING 116
SWIDTH 437 0
DWIDTH 6 0
BBX 6 10 0 0
BITMAP
60
60
60
FC
FC
60
60
60
3C
1C
ENDCHAR
STARTCHAR u
ENCODING 117
SWIDTH 562 0
DWIDTH 8 0
BBX 6 7 1 0
BITMAP
8C
8C
8C
8C
CC
FC
7C
ENDCHAR
STARTCHAR v
ENCODING 118
SWIDTH 532 0
DWIDTH 7 0
BBX 7 7 0 0
BITMAP
C6
66
6C
6C
3C
38
18
ENDCHAR
STARTCHAR w
ENCODING 119
SWIDTH 756 0
DWIDTH 11 0
BBX 9 7 1 0
BITMAP
D980
D980
D980
D980
D980
FF80
7F00
ENDCHAR
STARTCHAR x
ENCODING 120
SWIDTH 528 0
DWIDTH 7 0
BBX 7 7 0 0
BITMAP
66
7C
38
38
3C
6C
E6
ENDCHAR
STARTCHAR y
ENCODING 121
SWIDTH 562 0
DWIDTH 8 0
BBX 6 10 1 -3
BITMAP
8C
8C
8C
8C
CC
FC
7C
0C
78
70
ENDCHAR
STARTCHAR z
ENCODING 122
SWIDTH 481 0
DWIDTH 7 0
BBX 6 7 0 0
BITMAP
FC
F8
18
30
30
7C
7C
ENDCHAR
STARTCHAR braceleft
ENCODING 123
SWIDTH 466 0
DWIDTH 7 0
BBX 6 12 0 -1
BITMAP
1C
3C
30
30
30
F0
F0
30
30
30
3C
3C
ENDCHAR
STARTCHAR bar
ENCODING 124
SWIDTH 267 0
DWIDTH 4 0
BBX 2 12 1 -1
BITMAP
C0
C0
C0
C0
C0
C0
C0
C0
C0
C0
C0
C0
ENDCHAR
STARTCHAR braceright
ENCODING 125
SWIDTH 466 0
DWIDTH 7 0
BBX 5 12 1 -1
BITMAP
E0
E0
60
60
70
38
38
30
60
60
E0
E0
ENDCHAR
STARTCHAR asciitilde
ENCODING 126
SWIDTH 451 0
DWIDTH 6 0
BBX 5 2 1 4
BITMAP
F8
B0
ENDCHAR
STARTCHAR nonbreakingspace
ENCODING 160
SWIDTH 279 0
DWIDTH 4 0
BBX 1 1 0 0
BITMAP
00
ENDCHAR
STARTCHAR exclamdown
ENCODING 161
SWIDTH 274 0
DWIDTH 4 0
BBX 2 10 1 -2
BITMAP
C0
C0
00
C0
C0
C0
C0
C0
C0
C0
ENDCHAR
STARTCHAR cent
ENCODING 162
SWIDTH 462 0
DWIDTH 6 0
BBX 5 10 1 0
BITMAP
20
20
70
D8
80
80
D8
70
20
20
ENDCHAR
STARTCHAR sterling
ENCODING 163
SWIDTH 681 0
DWIDTH 10 0
BBX 8 10 1 0
BITMAP
38
78
60
60
F0
F0
60
63
7F
7E
ENDCHAR
STARTCHAR currency
ENCODING 164
SWIDTH 454 0
DWIDTH 6 0
BBX 6 5 0 2
BITMAP
FC
48
48
78
7C
ENDCHAR
STARTCHAR yen
ENCODING 165
SWIDTH 653 0
DWIDTH 9 0
BBX 8 10 1 0
BITMAP
C3
C3
C3
C6
C6
FE
FE
FE
18
18
ENDCHAR
STARTCHAR brokenbar
ENCODING 166
SWIDTH 269 0
DWIDTH 4 0
BBX 2 12 1 -1
BITMAP
C0
C0
C0
C0
C0
00
00
C0
C0
C0
C0
C0
ENDCHAR
STARTCHAR section
ENCODING 167
SWIDTH 569 0
DWIDTH 8 0
BBX 6 10 1 0
BITMAP
7C
FC
C0
FC
FC
CC
FC
0C
FC
FC
ENDCHAR
STARTCHAR dieresis
ENCODING 168
SWIDTH 300 0
DWIDTH 4 0
BBX 4 2 0 7
BITMAP
D0
90
ENDCHAR
STARTCHAR copyright
ENCODING 169
SWIDTH 655 0
DWIDTH 9 0
BBX 8 8 1 1
BITMAP
38
46
BA
C1
C1
AA
D6
3C
ENDCHAR
STARTCHAR ordfeminine
ENCODING 170
SWIDTH 451 0
DWIDTH 6 0
BBX 4 7 1 3
BITMAP
60
90
90
F0
60
00
F0
ENDCHAR
STARTCHAR guillemotleft
ENCODING 171
SWIDTH 704 0
DWIDTH 10 0
BBX 9 6 0 1
BITMAP
1980
3B80
7300
E600
7300
3980
ENDCHAR
STARTCHAR logicalnot
ENCODING 172
SWIDTH 529 0
DWIDTH 7 0
BBX 6 3 1 3
BITMAP
FC
FC
0C
ENDCHAR
STARTCHAR uni00AD
ENCODING 173
SWIDTH 418 0
DWIDTH 6 0
BBX 4 2 1 4
BITMAP
F0
F0
ENDCHAR
STARTCHAR registered
ENCODING 174
SWIDTH 439 0
DWIDTH 6 0
BBX 5 5 1 5
BITMAP
60
E0
48
60
D0
ENDCHAR
STARTCHAR macron
ENCODING 175
SWIDTH 247 0
DWIDTH 3 0
BBX 3 2 0 7
BITMAP
E0
E0
ENDCHAR
STARTCHAR degree
ENCODING 176
SWIDTH 381 0
DWIDTH 5 0
BBX 4 5 1 5
BITMAP
40
F0
B0
F0
60
ENDCHAR
STARTCHAR plusminus
ENCODING 177
SWIDTH 516 0
DWIDTH 7 0
BBX 5 7 1 0
BITMAP
30
F8
F8
30
00
F8
F8
ENDCHAR
STARTCHAR twosuperior
ENCODING 178
SWIDTH 355 0
DWIDTH 5 0
BBX 3 5 1 5
BITMAP
E0
E0
E0
80
E0
ENDCHAR
STARTCHAR threesuperior
ENCODING 179
SWIDTH 354 0
DWIDTH 5 0
BBX 3 5 1 5
BITMAP
E0
E0
E0
20
E0
ENDCHAR
STARTCHAR acute
ENCODING 180
SWIDTH 225 0
DWIDTH 3 0
BBX 3 2 0 7
BITMAP
60
C0
ENDCHAR
STARTCHAR mu
ENCODING 181
SWIDTH 571 0
DWIDTH 8 0
BBX 6 10 1 -3
BITMAP
C4
C4
C4
C4
CC
FC
F8
80
80
80
ENDCHAR
STARTCHAR paragraph
ENCODING 182
SWIDTH 808 0
DWIDTH 11 0
BBX 9 10 1 0
BITMAP
3F80
7F80
CD80
CD80
CD80
CD80
FD80
7D80
0D80
0D80
ENDCHAR
STARTCHAR periodcentered
ENCODING 183
SWIDTH 261 0
DWIDTH 4 0
BBX 2 2 1 4
BITMAP
C0
C0
ENDCHAR
STARTCHAR cedilla
ENCODING 184
SWIDTH 208 0
DWIDTH 3 0
BBX 3 3 0 -3
BITMAP
40
20
E0
ENDCHAR
STARTCHAR onesuperior
ENCODING 185
SWIDTH 231 0
DWIDTH 3 0
BBX 1 5 1 5
BITMAP
80
80
80
80
80
ENDCHAR
STARTCHAR ordmasculine
ENCODING 186
SWIDTH 432 0
DWIDTH 6 0
BBX 4 7 1 3
BITMAP
60
90
90
F0
60
00
F0
ENDCHAR
STARTCHAR guillemotright
ENCODING 187
SWIDTH 703 0
DWIDTH 10 0
BBX 9 7 1 0
BITMAP
8C00
CE00
6700
3380
6600
CC00
8000
ENDCHAR
STARTCHAR onequarter
ENCODING 188
SWIDTH 648 0
DWIDTH 9 0
BBX 8 10 1 0
BITMAP
C4
CC
C8
D8
D0
28
6A
4A
CF
82
ENDCHAR
STARTCHAR onehalf
ENCODING 189
SWIDTH 637 0
DWIDTH 9 0
BBX 7 10 1 0
BITMAP
C4
CC
C8
D8
D0
2E
6E
4E
C8
8E
ENDCHAR
STARTCHAR threequarters
ENCODING 190
SWIDTH 708 0
DWIDTH 10 0
BBX 8 10 1 0
BITMAP
E2
E6
EC
28
F8
14
35
25
67
41
ENDCHAR
STARTCHAR questiondown
ENCODING 191
SWIDTH 602 0
DWIDTH 8 0
BBX 7 10 1 -2
BITMAP
18
18
00
18
78
F0
C0
C0
FE
7E
ENDCHAR
STARTCHAR Agrave
ENCODING 192
SWIDTH 673 0
DWIDTH 9 0
BBX 8 14 1 0
BITMAP
20
70
10
00
38
7E
E6
C3
C3
C3
FF
FF
C3
C3
ENDCHAR
STARTCHAR Aacute
ENCODING 193
SWIDTH 673 0
DWIDTH 9 0
BBX 8 13 1 0
BITMAP
0C
18
00
38
7E
E6
C3
C3
C3
FF
FF
C3
C3
ENDCHAR
STARTCHAR Acircumflex
ENCODING 194
SWIDTH 673 0
DWIDTH 9 0
BBX 8 13 1 0
BITMAP
10
38
28
38
7E
E6
C3
C3
C3
FF
FF
C3
C3
ENDCHAR
STARTCHAR Atilde
ENCODING 195
SWIDTH 673 0
DWIDTH 9 0
BBX 8 13 1 0
BITMAP
24
7C
28
38
7E
E6
C3
C3
C3
FF
FF
C3
C3
ENDCHAR
STARTCHAR Adieresis
ENCODING 196
SWIDTH 673 0
DWIDTH 9 0
BBX 8 12 1 0
BITMAP
2C
20
38
7E
E6
C3
C3
C3
FF
FF
C3
C3
ENDCHAR
STARTCHAR Aring
ENCODING 197
SWIDTH 673 0
DWIDTH 9 0
BBX 8 12 1 0
BITMAP
18
28
38
7E
E6
C3
C3
C3
FF
FF
C3
C3
ENDCHAR
STARTCHAR AE
ENCODING 198
SWIDTH 988 0
DWIDTH 14 0
BBX 12 10 1 0
BITMAP
3FF0
7FF0
E300
C300
C3E0
C3E0
FF00
FF00
C3F0
C3F0
ENDCHAR
STARTCHAR Ccedilla
ENCODING 199
SWIDTH 640 0
DWIDTH 9 0
BBX 9 13 0 -3
BITMAP
1F00
3F80
7100
6000
C000
C000
6000
6100
3F00
1F00
0800
0400
1C00
ENDCHAR
STARTCHAR Egrave
ENCODING 200
SWIDTH 578 0
DWIDTH 8 0
BBX 7 12 1 0
BITMAP
70
30
FE
FE
C0
C0
F8
F8
C0
C0
FE
FE
ENDCHAR
STARTCHAR Eacute
ENCODING 201
SWIDTH 578 0
DWIDTH 8 0
BBX 7 14 1 0
BITMAP
08
1C
10
00
FE
FE
C0
C0
F8
F8
C0
C0
FE
FE
ENDCHAR
STARTCHAR Ecircumflex
ENCODING 202
SWIDTH 578 0
DWIDTH 8 0
BBX 7 12 1 0
BITMAP
38
28
FE
FE
C0
C0
F8
F8
C0
C0
FE
FE
ENDCHAR
STARTCHAR Edieresis
ENCODING 203
SWIDTH 578 0
DWIDTH 8 0
BBX 7 12 1 0
BITMAP
68
08
FE
FE
C0
C0
F8
F8
C0
C0
FE
FE
ENDCHAR
STARTCHAR Igrave
ENCODING 204
SWIDTH 270 0
DWIDTH 4 0
BBX 3 13 0 0
BITMAP
80
C0
40
60
60
60
60
60
60
60
60
60
60
ENDCHAR
STARTCHAR Iacute
ENCODING 205
SWIDTH 270 0
DWIDTH 4 0
BBX 3 13 1 0
BITMAP
60
C0
00
C0
C0
C0
C0
C0
C0
C0
C0
C0
C0
ENDCHAR
STARTCHAR Icircumflex
ENCODING 206
SWIDTH 270 0
DWIDTH 4 0
BBX 3 12 0 0
BITMAP
60
A0
60
60
60
60
60
60
60
60
60
60
ENDCHAR
STARTCHAR Idieresis
ENCODING 207
SWIDTH 270 0
DWIDTH 4 0
BBX 4 12 0 0
BITMAP
F0
90
60
60
60
60
60
60
60
60
60
60
ENDCHAR
STARTCHAR Eth
ENCODING 208
SWIDTH 672 0
DWIDTH 9 0
BBX 9 10 0 0
BITMAP
7C00
7E00
6300
6180
F180
F180
6180
6300
7F00
7C00
ENDCHAR
STARTCHAR Ntilde
ENCODING 209
SWIDTH 689 0
DWIDTH 10 0
BBX 8 13 1 0
BITMAP
34
3C
28
C3
E3
E3
F3
FB
DB
CF
CF
C7
C7
ENDCHAR
STARTCHAR Ograve
ENCODING 210
SWIDTH 777 0
DWIDTH 11 0
BBX 11 13 0 0
BITMAP
1C00
0C00
0000
1E00
3F80
71C0
60C0
C0C0
C060
60C0
61C0
3F80
1F00
ENDCHAR
STARTCHAR Oacute
ENCODING 211
SWIDTH 777 0
DWIDTH 11 0
BBX 11 14 0 0
BITMAP
0200
0700
0600
0000
1E00
3F80
71C0
60C0
C0C0
C060
60C0
61C0
3F80
1F00
ENDCHAR
STARTCHAR Ocircumflex
ENCODING 212
SWIDTH 777 0
DWIDTH 11 0
BBX 11 13 0 0
BITMAP
0400
0E00
0A00
1E00
3F80
71C0
60C0
C0C0
C060
60C0
61C0
3F80
1F00
ENDCHAR
STARTCHAR Otilde
ENCODING 213
SWIDTH 777 0
DWIDTH 11 0
BBX 11 13 0 0
BITMAP
0B00
1F00
1A00
1E00
3F80
71C0
60C0
C0C0
C060
60C0
61C0
3F80
1F00
ENDCHAR
STARTCHAR Odieresis
ENCODING 214
SWIDTH 777 0
DWIDTH 11 0
BBX 11 12 0 0
BITMAP
1B00
0A00
1E00
3F80
71C0
60C0
C0C0
C060
60C0
61C0
3F80
1F00
ENDCHAR
STARTCHAR multiply
ENCODING 215
SWIDTH 479 0
DWIDTH 7 0
BBX 5 5 1 2
BITMAP
D8
F0
70
F8
10
ENDCHAR
STARTCHAR Oslash
ENCODING 216
SWIDTH 777 0
DWIDTH 11 0
BBX 11 10 0 0
BITMAP
1EC0
3F80
73C0
63C0
C6C0
CC60
78C0
79C0
3F80
7F00
ENDCHAR
STARTCHAR Ugrave
ENCODING 217
SWIDTH 673 0
DWIDTH 9 0
BBX 8 13 1 0
BITMAP
20
70
10
C3
C3
C3
C3
C3
C3
C3
C6
7E
3C
ENDCHAR
STARTCHAR Uacute
ENCODING 218
SWIDTH 673 0
DWIDTH 9 0
BBX 8 13 1 0
BITMAP
0C
18
00
C3
C3
C3
C3
C3
C3
C3
C6
7E
3C
ENDCHAR
STARTCHAR Ucircumflex
ENCODING 219
SWIDTH 673 0
DWIDTH 9 0
BBX 8 13 1 0
BITMAP
10
38
28
C3
C3
C3
C3
C3
C3
C3
C6
7E
3C
ENDCHAR
STARTCHAR Udieresis
ENCODING 220
SWIDTH 673 0
DWIDTH 9 0
BBX 8 12 1 0
BITMAP
2C
20
C3
C3
C3
C3
C3
C3
C3
C6
7E
3C
ENDCHAR
STARTCHAR Yacute
ENCODING 221
SWIDTH 620 0
DWIDTH 9 0
BBX 8 13 0 0
BITMAP
04
0E
08
C3
C3
C3
C3
63
7E
3C
18
18
18
ENDCHAR
STARTCHAR Thorn
ENCODING 222
SWIDTH 637 0
DWIDTH 9 0
BBX 8 10 1 0
BITMAP
C0
F8
FE
C6
C3
C3
C6
FE
FC
C0
ENDCHAR
STARTCHAR germandbls
ENCODING 223
SWIDTH 813 0
DWIDTH 11 0
BBX 11 11 0 0
BITMAP
1F00
3F80
6180
6180
E780
EE00
6F80
67E0
6060
67E0
67C0
ENDCHAR
STARTCHAR agrave
ENCODING 224
SWIDTH 607 0
DWIDTH 9 0
BBX 8 10 0 0
BITMAP
30
18
18
7F
67
C3
C3
E7
7F
3D
ENDCHAR
STARTCHAR aacute
ENCODING 225
SWIDTH 607 0
DWIDTH 9 0
BBX 8 11 0 0
BITMAP
04
0C
08
18
7F
67
C3
C3
E7
7F
3D
ENDCHAR
STARTCHAR acircumflex
ENCODING 226
SWIDTH 607 0
DWIDTH 9 0
BBX 8 10 0 0
BITMAP
18
04
18
7F
67
C3
C3
E7
7F
3D
ENDCHAR
STARTCHAR atilde
ENCODING 227
SWIDTH 607 0
DWIDTH 9 0
BBX 8 11 0 0
BITMAP
34
3C
2C
18
7F
67
C3
C3
E7
7F
3D
ENDCHAR
STARTCHAR adieresis
ENCODING 228
SWIDTH 607 0
DWIDTH 9 0
BBX 8 10 0 0
BITMAP
3C
24
18
7F
67
C3
C3
E7
7F
3D
ENDCHAR
STARTCHAR aring
ENCODING 229
SWIDTH 607 0
DWIDTH 9 0
BBX 8 11 0 0
BITMAP
18
18
18
18
7F
67
C3
C3
E7
7F
3D
ENDCHAR
STARTCHAR ae
ENCODING 230
SWIDTH 976 0
DWIDTH 14 0
BBX 13 8 0 0
BITMAP
1860
7FF8
6798
C3B0
C3E0
E7E0
7FF8
3DF0
ENDCHAR
STARTCHAR ccedilla
ENCODING 231
SWIDTH 521 0
DWIDTH 7 0
BBX 7 11 0 -3
BITMAP
18
7E
66
C0
C0
E0
7E
3C
10
08
38
ENDCHAR
STARTCHAR egrave
ENCODING 232
SWIDTH 524 0
DWIDTH 7 0
BBX 7 11 0 0
BITMAP
20
30
10
18
7E
6E
CC
D8
70
7E
3C
ENDCHAR
STARTCHAR eacute
ENCODING 233
SWIDTH 524 0
DWIDTH 7 0
BBX 7 10 0 0
BITMAP
0C
08
18
7E
6E
CC
D8
70
7E
3C
ENDCHAR
STARTCHAR ecircumflex
ENCODING 234
SWIDTH 524 0
DWIDTH 7 0
BBX 7 11 0 0
BITMAP
10
38
28
18
7E
6E
CC
D8
70
7E
3C
ENDCHAR
STARTCHAR edieresis
ENCODING 235
SWIDTH 524 0
DWIDTH 7 0
BBX 7 10 0 0
BITMAP
2C
20
18
7E
6E
CC
D8
70
7E
3C
ENDCHAR
STARTCHAR igrave
ENCODING 236
SWIDTH 235 0
DWIDTH 3 0
BBX 4 11 -1 0
BITMAP
40
E0
20
00
30
30
30
30
30
30
30
ENDCHAR
STARTCHAR iacute
ENCODING 237
SWIDTH 235 0
DWIDTH 3 0
BBX 3 10 1 0
BITMAP
60
C0
00
C0
C0
C0
C0
C0
C0
C0
ENDCHAR
STARTCHAR icircumflex
ENCODING 238
SWIDTH 235 0
DWIDTH 3 0
BBX 3 11 0 0
BITMAP
40
E0
A0
00
60
60
60
60
60
60
60
ENDCHAR
STARTCHAR idieresis
ENCODING 239
SWIDTH 235 0
DWIDTH 3 0
BBX 4 9 0 0
BITMAP
B0
80
60
60
60
60
60
60
60
ENDCHAR
STARTCHAR eth
ENCODING 240
SWIDTH 581 0
DWIDTH 8 0
BBX 8 11 0 0
BITMAP
18
3F
3F
06
7E
67
C3
C3
E3
7E
3C
ENDCHAR
STARTCHAR ntilde
ENCODING 241
SWIDTH 562 0
DWIDTH 8 0
BBX 6 11 1 0
BITMAP
68
78
58
00
F8
FC
CC
CC
CC
CC
CC
ENDCHAR
STARTCHAR ograve
ENCODING 242
SWIDTH 579 0
DWIDTH 8 0
BBX 8 10 0 0
BITMAP
30
10
18
7E
66
C3
C3
E3
7E
3C
ENDCHAR
STARTCHAR oacute
ENCODING 243
SWIDTH 579 0
DWIDTH 8 0
BBX 8 11 0 0
BITMAP
04
0C
08
18
7E
66
C3
C3
E3
7E
3C
ENDCHAR
STARTCHAR ocircumflex
ENCODING 244
SWIDTH 579 0
DWIDTH 8 0
BBX 8 10 0 0
BITMAP
18
04
18
7E
66
C3
C3
E3
7E
3C
ENDCHAR
STARTCHAR otilde
ENCODING 245
SWIDTH 579 0
DWIDTH 8 0
BBX 8 11 0 0
BITMAP
34
3C
2C
18
7E
66
C3
C3
E3
7E
3C
ENDCHAR
STARTCHAR odieresis
ENCODING 246
SWIDTH 579 0
DWIDTH 8 0
BBX 8 10 0 0
BITMAP
3C
24
18
7E
66
C3
C3
E3
7E
3C
ENDCHAR
STARTCHAR divide
ENCODING 247
SWIDTH 494 0
DWIDTH 7 0
BBX 5 6 1 2
BITMAP
60
20
F8
F8
20
60
ENDCHAR
STARTCHAR oslash
ENCODING 248
SWIDTH 579 0
DWIDTH 8 0
BBX 8 8 0 0
BITMAP
18
7E
6E
CF
DB
F3
7E
7C
ENDCHAR
STARTCHAR ugrave
ENCODING 249
SWIDTH 562 0
DWIDTH 8 0
BBX 6 11 1 0
BITMAP
40
60
20
00
8C
8C
8C
8C
CC
FC
7C
ENDCHAR
STARTCHAR uacute
ENCODING 250
SWIDTH 562 0
DWIDTH 8 0
BBX 6 10 1 0
BITMAP
18
30
00
8C
8C
8C
8C
CC
FC
7C
ENDCHAR
STARTCHAR ucircumflex
ENCODING 251
SWIDTH 562 0
DWIDTH 8 0
BBX 6 10 1 0
BITMAP
30
50
00
8C
8C
8C
8C
CC
FC
7C
ENDCHAR
STARTCHAR udieresis
ENCODING 252
SWIDTH 562 0
DWIDTH 8 0
BBX 6 9 1 0
BITMAP
78
48
8C
8C
8C
8C
CC
FC
7C
ENDCHAR
STARTCHAR yacute
ENCODING 253
SWIDTH 562 0
DWIDTH 8 0
BBX 6 13 1 -3
BITMAP
18
30
00
8C
8C
8C
8C
CC
FC
7C
0C
78
70
ENDCHAR
STARTCHAR thorn
ENCODING 254
SWIDTH 608 0
DWIDTH 9 0
BBX 7 13 1 -3
BITMAP
C0
C0
D0
FC
EE
C6
C6
C6
FE
FC
C0
C0
C0
ENDCHAR
STARTCHAR ydieresis
ENCODING 255
SWIDTH 562 0
DWIDTH 8 0
BBX 6 13 1 -3
BITMAP
78
48
00
8C
8C
8C
8C
CC
FC
7C
0C
78
70
ENDCHAR
STARTCHAR Amacron
ENCODING 256
SWIDTH 673 0
DWIDTH 9 0
BBX 8 12 1 0
BITMAP
38
38
38
7E
E6
C3
C3
C3
FF
FF
C3
C3
ENDCHAR
STARTCHAR amacron
ENCODING 257
SWIDTH 607 0
DWIDTH 9 0
BBX 8 10 0 0
BITMAP
3C
3C
18
7F
67
C3
C3
E7
7F
3D
ENDCHAR
STARTCHAR Abreve
ENCODING 258
SWIDTH 673 0
DWIDTH 9 0
BBX 8 13 1 0
BITMAP
28
38
00
38
7E
E6
C3
C3
C3
FF
FF
C3
C3
ENDCHAR
STARTCHAR abreve
ENCODING 259
SWIDTH 607 0
DWIDTH 9 0
BBX 8 11 0 0
BITMAP
38
38
00
18
7F
67
C3
C3
E7
7F
3D
ENDCHAR
STARTCHAR Aogonek
ENCODING 260
SWIDTH 673 0
DWIDTH 9 0
BBX 8 12 1 -2
BITMAP
38
7E
E6
C3
C3
C3
FF
FF
C3
C3
06
07
ENDCHAR
STARTCHAR aogonek
ENCODING 261
SWIDTH 607 0
DWIDTH 9 0
BBX 9 10 0 -2
BITMAP
1800
7F00
6700
C300
C300
E700
7F00
3D00
0200
0380
ENDCHAR
STARTCHAR Cacute
ENCODING 262
SWIDTH 640 0
DWIDTH 9 0
BBX 9 14 0 0
BITMAP
0200
0600
0400
0000
1F00
3F80
7100
6000
C000
C000
6000
6100
3F00
1F00
ENDCHAR
STARTCHAR cacute
ENCODING 263
SWIDTH 521 0
DWIDTH 7 0
BBX 7 10 0 0
BITMAP
0C
18
18
7E
66
C0
C0
E0
7E
3C
ENDCHAR
STARTCHAR Ccircumflex
ENCODING 264
SWIDTH 640 0
DWIDTH 9 0
BBX 9 12 0 0
BITMAP
0C00
0A00
1F00
3F80
7100
6000
C000
C000
6000
6100
3F00
1F00
ENDCHAR
STARTCHAR ccircumflex
ENCODING 265
SWIDTH 521 0
DWIDTH 7 0
BBX 7 10 0 0
BITMAP
18
00
18
7E
66
C0
C0
E0
7E
3C
ENDCHAR
STARTCHAR Cdotaccent
ENCODING 266
SWIDTH 640 0
DWIDTH 9 0
BBX 9 12 0 0
BITMAP
0C00
0000
1F00
3F80
7100
6000
C000
C000
6000
6100
3F00
1F00
ENDCHAR
STARTCHAR cdotaccent
ENCODING 267
SWIDTH 521 0
DWIDTH 7 0
BBX 7 10 0 0
BITMAP
18
00
18
7E
66
C0
C0
E0
7E
3C
ENDCHAR
STARTCHAR Ccaron
ENCODING 268
SWIDTH 640 0
DWIDTH 9 0
BBX 9 13 0 0
BITMAP
0A00
0E00
0400
1F00
3F80
7100
6000
C000
C000
6000
6100
3F00
1F00
ENDCHAR
STARTCHAR ccaron
ENCODING 269
SWIDTH 521 0
DWIDTH 7 0
BBX 7 10 0 0
BITMAP
18
00
18
7E
66
C0
C0
E0
7E
3C
ENDCHAR
STARTCHAR Dcaron
ENCODING 270
SWIDTH 653 0
DWIDTH 9 0
BBX 8 13 1 0
BITMAP
28
38
10
F8
FC
CE
C7
C3
C3
C7
C6
FC
F8
ENDCHAR
STARTCHAR dcaron
ENCODING 271
SWIDTH 740 0
DWIDTH 10 0
BBX 10 10 0 0
BITMAP
0340
0340
1B40
7F00
6700
C300
C300
E700
7F00
3D00
ENDCHAR
STARTCHAR Dcroat
ENCODING 272
SWIDTH 672 0
DWIDTH 9 0
BBX 9 10 0 0
BITMAP
7C00
7E00
6300
6180
F180
F180
6180
6300
7F00
7C00
ENDCHAR
STARTCHAR dcroat
ENCODING 273
SWIDTH 606 0
DWIDTH 9 0
BBX 9 10 0 0
BITMAP
0780
0780
1B00
7F00
6700
C300
C300
E700
7F00
3D00
ENDCHAR
STARTCHAR Emacron
ENCODING 274
SWIDTH 578 0
DWIDTH 8 0
BBX 7 12 1 0
BITMAP
38
38
FE
FE
C0
C0
F8
F8
C0
C0
FE
FE
ENDCHAR
STARTCHAR emacron
ENCODING 275
SWIDTH 524 0
DWIDTH 7 0
BBX 7 10 0 0
BITMAP
3C
3C
18
7E
6E
CC
D8
70
7E
3C
ENDCHAR
STARTCHAR Ebreve
ENCODING 276
SWIDTH 578 0
DWIDTH 8 0
BBX 7 13 1 0
BITMAP
28
38
00
FE
FE
C0
C0
F8
F8
C0
C0
FE
FE
ENDCHAR
STARTCHAR ebreve
ENCODING 277
SWIDTH 524 0
DWIDTH 7 0
BBX 7 11 0 0
BITMAP
38
38
00
18
7E
6E
CC
D8
70
7E
3C
ENDCHAR
STARTCHAR Edotaccent
ENCODING 278
SWIDTH 578 0
DWIDTH 8 0
BBX 7 12 1 0
BITMAP
30
00
FE
FE
C0
C0
F8
F8
C0
C0
FE
FE
ENDCHAR
STARTCHAR edotaccent
ENCODING 279
SWIDTH 524 0
DWIDTH 7 0
BBX 7 10 0 0
BITMAP
18
00
18
7E
6E
CC
D8
70
7E
3C
ENDCHAR
STARTCHAR Eogonek
ENCODING 280
SWIDTH 578 0
DWIDTH 8 0
BBX 7 12 1 -2
BITMAP
FE
FE
C0
C0
F8
F8
C0
C0
FE
FE
08
0C
ENDCHAR
STARTCHAR eogonek
ENCODING 281
SWIDTH 524 0
DWIDTH 7 0
BBX 7 10 0 -2
BITMAP
18
7E
6E
CC
D8
70
7E
3C
08
0C
ENDCHAR
STARTCHAR Ecaron
ENCODING 282
SWIDTH 578 0
DWIDTH 8 0
BBX 7 13 1 0
BITMAP
28
38
10
FE
FE
C0
C0
F8
F8
C0
C0
FE
FE
ENDCHAR
STARTCHAR ecaron
ENCODING 283
SWIDTH 524 0
DWIDTH 7 0
BBX 7 10 0 0
BITMAP
18
00
18
7E
6E
CC
D8
70
7E
3C
ENDCHAR
STARTCHAR Gcircumflex
ENCODING 284
SWIDTH 665 0
DWIDTH 9 0
BBX 9 12 0 0
BITMAP
0E00
0A00
1E00
3F80
7100
6000
C000
C180
6180
6180
3F80
1F00
ENDCHAR
STARTCHAR gcircumflex
ENCODING 285
SWIDTH 607 0
DWIDTH 9 0
BBX 8 13 0 -3
BITMAP
18
00
18
7F
67
C3
C3
E7
7F
3F
07
1E
1C
ENDCHAR
STARTCHAR Gbreve
ENCODING 286
SWIDTH 665 0
DWIDTH 9 0
BBX 9 13 0 0
BITMAP
0A00
0E00
0000
1E00
3F80
7100
6000
C000
C180
6180
6180
3F80
1F00
ENDCHAR
STARTCHAR gbreve
ENCODING 287
SWIDTH 607 0
DWIDTH 9 0
BBX 8 14 0 -3
BITMAP
18
18
00
18
7F
67
C3
C3
E7
7F
3F
07
1E
1C
ENDCHAR
STARTCHAR Gdotaccent
ENCODING 288
SWIDTH 665 0
DWIDTH 9 0
BBX 9 12 0 0
BITMAP
0C00
0000
1E00
3F80
7100
6000
C000
C180
6180
6180
3F80
1F00
ENDCHAR
STARTCHAR gdotaccent
ENCODING 289
SWIDTH 607 0
DWIDTH 9 0
BBX 8 13 0 -3
BITMAP
18
00
18
7F
67
C3
C3
E7
7F
3F
07
1E
1C
ENDCHAR
STARTCHAR Gcommaaccent
ENCODING 290
SWIDTH 665 0
DWIDTH 9 0
BBX 9 13 0 -3
BITMAP
1E00
3F80
7100
6000
C000
C180
6180
6180
3F80
1F00
0000
0C00
0400
ENDCHAR
STARTCHAR gcommaaccent
ENCODING 291
SWIDTH 607 0
DWIDTH 9 0
BBX 8 14 0 -3
BITMAP
10
18
00
18
7F
67
C3
C3
E7
7F
3F
07
1E
1C
ENDCHAR
STARTCHAR Hcircumflex
ENCODING 292
SWIDTH 689 0
DWIDTH 10 0
BBX 8 12 1 0
BITMAP
38
28
C3
C3
C3
C3
FF
FF
C3
C3
C3
C3
ENDCHAR
STARTCHAR hcircumflex
ENCODING 293
SWIDTH 562 0
DWIDTH 8 0
BBX 6 10 1 0
BITMAP
F8
E8
C0
F8
FC
CC
CC
CC
CC
CC
ENDCHAR
STARTCHAR Hbar
ENCODING 294
SWIDTH 689 0
DWIDTH 10 0
BBX 9 10 0 0
BITMAP
6180
FF80
FF80
6180
7F80
7F80
6180
6180
6180
6180
ENDCHAR
STARTCHAR hbar
ENCODING 295
SWIDTH 562 0
DWIDTH 8 0
BBX 7 10 0 0
BITMAP
E0
E0
60
7C
7E
66
66
66
66
66
ENDCHAR
STARTCHAR Itilde
ENCODING 296
SWIDTH 270 0
DWIDTH 4 0
BBX 4 13 0 0
BITMAP
D0
F0
A0
60
60
60
60
60
60
60
60
60
60
ENDCHAR
STARTCHAR itilde
ENCODING 297
SWIDTH 235 0
DWIDTH 3 0
BBX 5 11 -1 0
BITMAP
58
F8
50
00
30
30
30
30
30
30
30
ENDCHAR
STARTCHAR Imacron
ENCODING 298
SWIDTH 270 0
DWIDTH 4 0
BBX 4 12 0 0
BITMAP
F0
F0
60
60
60
60
60
60
60
60
60
60
ENDCHAR
STARTCHAR imacron
ENCODING 299
SWIDTH 235 0
DWIDTH 3 0
BBX 3 9 0 0
BITMAP
E0
E0
60
60
60
60
60
60
60
ENDCHAR
STARTCHAR Ibreve
ENCODING 300
SWIDTH 270 0
DWIDTH 4 0
BBX 3 13 0 0
BITMAP
E0
E0
00
60
60
60
60
60
60
60
60
60
60
ENDCHAR
STARTCHAR ibreve
ENCODING 301
SWIDTH 235 0
DWIDTH 3 0
BBX 3 10 0 0
BITMAP
A0
E0
00
60
60
60
60
60
60
60
ENDCHAR
STARTCHAR Iogonek
ENCODING 302
SWIDTH 270 0
DWIDTH 4 0
BBX 3 12 0 -2
BITMAP
60
60
60
60
60
60
60
60
60
60
40
E0
ENDCHAR
STARTCHAR iogonek
ENCODING 303
SWIDTH 235 0
DWIDTH 3 0
BBX 3 13 0 -2
BITMAP
40
E0
60
00
60
60
60
60
60
60
60
40
E0
ENDCHAR
STARTCHAR Idotaccent
ENCODING 304
SWIDTH 270 0
DWIDTH 4 0
BBX 2 12 1 0
BITMAP
C0
00
C0
C0
C0
C0
C0
C0
C0
C0
C0
C0
ENDCHAR
STARTCHAR dotlessi
ENCODING 305
SWIDTH 235 0
DWIDTH 3 0
BBX 2 7 1 0
BITMAP
C0
C0
C0
C0
C0
C0
C0
ENDCHAR
STARTCHAR IJ
ENCODING 306
SWIDTH 687 0
DWIDTH 10 0
BBX 8 10 1 0
BITMAP
C3
C3
C3
C3
C3
C3
C3
C7
DE
DC
ENDCHAR
STARTCHAR ij
ENCODING 307
SWIDTH 474 0
DWIDTH 7 0
BBX 6 14 0 -3
BITMAP
40
EC
6C
00
6C
6C
6C
6C
6C
6C
6C
1C
78
70
ENDCHAR
STARTCHAR Jcircumflex
ENCODING 308
SWIDTH 416 0
DWIDTH 6 0
BBX 5 12 0 0
BITMAP
18
00
18
18
18
18
18
18
18
38
F0
E0
ENDCHAR
STARTCHAR jcircumflex
ENCODING 309
SWIDTH 237 0
DWIDTH 3 0
BBX 5 14 -2 -3
BITMAP
10
38
28
00
18
18
18
18
18
18
18
30
F0
C0
ENDCHAR
STARTCHAR Kcommaaccent
ENCODING 310
SWIDTH 625 0
DWIDTH 9 0
BBX 8 14 1 -4
BITMAP
C7
C6
CC
D8
F8
F8
EC
CC
C6
C6
00
30
10
10
ENDCHAR
STARTCHAR kcommaaccent
ENCODING 311
SWIDTH 539 0
DWIDTH 8 0
BBX 6 13 1 -3
BITMAP
C0
C0
C0
CC
D8
F0
F8
F8
CC
CC
00
30
30
ENDCHAR
STARTCHAR kgreenlandic
ENCODING 312
SWIDTH 539 0
DWIDTH 8 0
BBX 6 7 1 0
BITMAP
CC
D8
F0
F8
F8
CC
CC
ENDCHAR
STARTCHAR Lacute
ENCODING 313
SWIDTH 562 0
DWIDTH 8 0
BBX 7 12 1 0
BITMAP
18
30
C0
C0
C0
C0
C0
C0
C0
C0
FE
FE
ENDCHAR
STARTCHAR lacute
ENCODING 314
SWIDTH 235 0
DWIDTH 3 0
BBX 3 14 1 0
BITMAP
20
60
40
00
C0
C0
C0
C0
C0
C0
C0
C0
C0
C0
ENDCHAR
STARTCHAR Lcommaaccent
ENCODING 315
SWIDTH 562 0
DWIDTH 8 0
BBX 7 13 1 -3
BITMAP
C0
C0
C0
C0
C0
C0
C0
C0
FE
FE
00
30
10
ENDCHAR
STARTCHAR lcommaaccent
ENCODING 316
SWIDTH 235 0
DWIDTH 3 0
BBX 2 13 1 -3
BITMAP
C0
C0
C0
C0
C0
C0
C0
C0
C0
C0
00
C0
80
ENDCHAR
STARTCHAR Lcaron
ENCODING 317
SWIDTH 562 0
DWIDTH 8 0
BBX 7 10 1 0
BITMAP
D0
D8
D0
C0
C0
C0
C0
C0
FE
FE
ENDCHAR
STARTCHAR lcaron
ENCODING 318
SWIDTH 369 0
DWIDTH 5 0
BBX 4 10 1 0
BITMAP
D0
F0
D0
C0
C0
C0
C0
C0
C0
C0
ENDCHAR
STARTCHAR Ldot
ENCODING 319
SWIDTH 745 0
DWIDTH 10 0
BBX 9 10 1 0
BITMAP
C000
C000
C000
C000
C180
C180
C000
C000
FE00
FE00
ENDCHAR
STARTCHAR ldotaccent
ENCODING 320
SWIDTH 463 0
DWIDTH 7 0
BBX 5 10 1 0
BITMAP
C0
C0
C0
C0
D8
D8
C0
C0
C0
C0
ENDCHAR
STARTCHAR Lslash
ENCODING 321
SWIDTH 585 0
DWIDTH 8 0
BBX 8 10 0 0
BITMAP
60
60
60
70
70
E0
E0
60
7F
7F
ENDCHAR
STARTCHAR lslash
ENCODING 322
SWIDTH 319 0
DWIDTH 4 0
BBX 4 10 0 0
BITMAP
60
60
60
70
70
E0
E0
60
60
60
ENDCHAR
STARTCHAR Nacute
ENCODING 323
SWIDTH 689 0
DWIDTH 10 0
BBX 8 12 1 0
BITMAP
0C
18
C3
E3
E3
F3
FB
DB
CF
CF
C7
C7
ENDCHAR
STARTCHAR nacute
ENCODING 324
SWIDTH 562 0
DWIDTH 8 0
BBX 6 11 1 0
BITMAP
08
1C
10
00
F8
FC
CC
CC
CC
CC
CC
ENDCHAR
STARTCHAR Ncommaaccent
ENCODING 325
SWIDTH 689 0
DWIDTH 10 0
BBX 8 13 1 -3
BITMAP
C3
E3
E3
F3
FB
DB
CF
CF
C7
C7
00
18
08
ENDCHAR
STARTCHAR ncommaaccent
ENCODING 326
SWIDTH 562 0
DWIDTH 8 0
BBX 6 10 1 -3
BITMAP
F8
FC
CC
CC
CC
CC
CC
00
30
10
ENDCHAR
STARTCHAR Ncaron
ENCODING 327
SWIDTH 689 0
DWIDTH 10 0
BBX 8 13 1 0
BITMAP
28
38
00
C3
E3
E3
F3
FB
DB
CF
CF
C7
C7
ENDCHAR
STARTCHAR ncaron
ENCODING 328
SWIDTH 562 0
DWIDTH 8 0
BBX 6 10 1 0
BITMAP
30
00
00
F8
FC
CC
CC
CC
CC
CC
ENDCHAR
STARTCHAR napostrophe
ENCODING 329
SWIDTH 694 0
DWIDTH 10 0
BBX 9 10 0 0
BITMAP
C000
C000
4000
1F00
1B80
1180
1180
1180
1180
1180
ENDCHAR
STARTCHAR Eng
ENCODING 330
SWIDTH 689 0
DWIDTH 10 0
BBX 8 13 1 -3
BITMAP
C3
E3
E3
F3
FB
DB
CF
CF
C7
C7
06
1E
18
ENDCHAR
STARTCHAR eng
ENCODING 331
SWIDTH 562 0
DWIDTH 8 0
BBX 6 10 1 -3
BITMAP
F8
FC
CC
CC
CC
CC
CC
0C
38
30
ENDCHAR
STARTCHAR Omacron
ENCODING 332
SWIDTH 777 0
DWIDTH 11 0
BBX 11 12 0 0
BITMAP
0E00
0E00
1E00
3F80
71C0
60C0
C0C0
C060
60C0
61C0
3F80
1F00
ENDCHAR
STARTCHAR omacron
ENCODING 333
SWIDTH 579 0
DWIDTH 8 0
BBX 8 10 0 0
BITMAP
3C
3C
18
7E
66
C3
C3
E3
7E
3C
ENDCHAR
STARTCHAR Obreve
ENCODING 334
SWIDTH 777 0
DWIDTH 11 0
BBX 11 13 0 0
BITMAP
0A00
0E00
0000
1E00
3F80
71C0
60C0
C0C0
C060
60C0
61C0
3F80
1F00
ENDCHAR
STARTCHAR obreve
ENCODING 335
SWIDTH 579 0
DWIDTH 8 0
BBX 8 11 0 0
BITMAP
18
1C
00
18
7E
66
C3
C3
E3
7E
3C
ENDCHAR
STARTCHAR Ohungarumlaut
ENCODING 336
SWIDTH 777 0
DWIDTH 11 0
BBX 11 13 0 0
BITMAP
0D00
0F00
0200
1E00
3F80
71C0
60C0
C0C0
C060
60C0
61C0
3F80
1F00
ENDCHAR
STARTCHAR ohungarumlaut
ENCODING 337
SWIDTH 579 0
DWIDTH 8 0
BBX 8 11 0 0
BITMAP
1A
36
04
18
7E
66
C3
C3
E3
7E
3C
ENDCHAR
STARTCHAR OE
ENCODING 338
SWIDTH 1125 0
DWIDTH 16 0
BBX 15 10 0 0
BITMAP
1E7E
3FFE
71E0
60E0
C0FC
C07C
60E0
61E0
3FFE
1F7E
ENDCHAR
STARTCHAR oe
ENCODING 339
SWIDTH 924 0
DWIDTH 13 0
BBX 13 8 0 0
BITMAP
1860
7FF0
67B0
C360
C360
E3D0
7FF8
3CF0
ENDCHAR
STARTCHAR Racute
ENCODING 340
SWIDTH 651 0
DWIDTH 9 0
BBX 8 13 1 0
BITMAP
08
1C
10
F8
FE
C6
C3
C3
C6
FE
FC
CC
C6
ENDCHAR
STARTCHAR racute
ENCODING 341
SWIDTH 414 0
DWIDTH 6 0
BBX 5 11 1 0
BITMAP
10
30
20
00
F8
F8
C0
C0
C0
C0
C0
ENDCHAR
STARTCHAR Rcommaaccent
ENCODING 342
SWIDTH 651 0
DWIDTH 9 0
BBX 8 13 1 -3
BITMAP
F8
FE
C6
C3
C3
C6
FE
FC
CC
C6
00
10
10
ENDCHAR
STARTCHAR rcommaaccent
ENCODING 343
SWIDTH 414 0
DWIDTH 6 0
BBX 5 10 1 -3
BITMAP
F8
F8
C0
C0
C0
C0
C0
00
C0
80
ENDCHAR
STARTCHAR Rcaron
ENCODING 344
SWIDTH 651 0
DWIDTH 9 0
BBX 8 13 1 0
BITMAP
28
38
10
F8
FE
C6
C3
C3
C6
FE
FC
CC
C6
ENDCHAR
STARTCHAR rcaron
ENCODING 345
SWIDTH 414 0
DWIDTH 6 0
BBX 5 11 1 0
BITMAP
80
E0
00
00
F8
F8
C0
C0
C0
C0
C0
ENDCHAR
STARTCHAR Sacute
ENCODING 346
SWIDTH 610 0
DWIDTH 9 0
BBX 8 14 0 0
BITMAP
04
0E
08
00
3F
7F
E0
C0
7E
3F
03
03
7F
7E
ENDCHAR
STARTCHAR sacute
ENCODING 347
SWIDTH 523 0
DWIDTH 7 0
BBX 7 10 0 0
BITMAP
0C
18
00
7E
7E
78
7E
06
FE
FC
ENDCHAR
STARTCHAR Scircumflex
ENCODING 348
SWIDTH 610 0
DWIDTH 9 0
BBX 8 13 0 0
BITMAP
08
1C
14
3F
7F
E0
C0
7E
3F
03
03
7F
7E
ENDCHAR
STARTCHAR scircumflex
ENCODING 349
SWIDTH 523 0
DWIDTH 7 0
BBX 7 11 0 0
BITMAP
10
38
28
00
7E
7E
78
7E
06
FE
FC
ENDCHAR
STARTCHAR Scedilla
ENCODING 350
SWIDTH 610 0
DWIDTH 9 0
BBX 8 13 0 -3
BITMAP
3F
7F
E0
C0
7E
3F
03
03
7F
7E
08
0C
1C
ENDCHAR
STARTCHAR scedilla
ENCODING 351
SWIDTH 523 0
DWIDTH 7 0
BBX 7 10 0 -3
BITMAP
7E
7E
78
7E
06
FE
FC
10
08
38
ENDCHAR
STARTCHAR Scaron
ENCODING 352
SWIDTH 610 0
DWIDTH 9 0
BBX 8 13 0 0
BITMAP
14
1C
08
3F
7F
E0
C0
7E
3F
03
03
7F
7E
ENDCHAR
STARTCHAR scaron
ENCODING 353
SWIDTH 523 0
DWIDTH 7 0
BBX 7 11 0 0
BITMAP
20
38
00
00
7E
7E
78
7E
06
FE
FC
ENDCHAR
STARTCHAR Tcommaaccent
ENCODING 354
SWIDTH 578 0
DWIDTH 8 0
BBX 8 13 0 -3
BITMAP
FF
FF
18
18
18
18
18
18
18
18
00
18
08
ENDCHAR
STARTCHAR tcommaaccent
ENCODING 355
SWIDTH 437 0
DWIDTH 6 0
BBX 6 13 0 -3
BITMAP
60
60
60
FC
FC
60
60
60
3C
1C
00
30
10
ENDCHAR
STARTCHAR Tcaron
ENCODING 356
SWIDTH 578 0
DWIDTH 8 0
BBX 8 12 0 0
BITMAP
18
00
FF
FF
18
18
18
18
18
18
18
18
ENDCHAR
STARTCHAR tcaron
ENCODING 357
SWIDTH 570 0
DWIDTH 8 0
BBX 8 10 0 0
BITMAP
63
63
61
FC
FC
60
60
60
3C
1C
ENDCHAR
STARTCHAR Tbar
ENCODING 358
SWIDTH 578 0
DWIDTH 8 0
BBX 8 10 0 0
BITMAP
FF
FF
18
18
18
3C
3C
18
18
18
ENDCHAR
STARTCHAR tbar
ENCODING 359
SWIDTH 437 0
DWIDTH 6 0
BBX 6 10 0 0
BITMAP
60
60
60
FC
FC
F0
F0
60
3C
1C
ENDCHAR
STARTCHAR Utilde
ENCODING 360
SWIDTH 673 0
DWIDTH 9 0
BBX 8 13 1 0
BITMAP
24
7C
28
C3
C3
C3
C3
C3
C3
C3
C6
7E
3C
ENDCHAR
STARTCHAR utilde
ENCODING 361
SWIDTH 562 0
DWIDTH 8 0
BBX 6 11 1 0
BITMAP
68
78
58
00
8C
8C
8C
8C
CC
FC
7C
ENDCHAR
STARTCHAR Umacron
ENCODING 362
SWIDTH 673 0
DWIDTH 9 0
BBX 8 12 1 0
BITMAP
38
38
C3
C3
C3
C3
C3
C3
C3
C6
7E
3C
ENDCHAR
STARTCHAR umacron
ENCODING 363
SWIDTH 562 0
DWIDTH 8 0
BBX 6 9 1 0
BITMAP
78
78
8C
8C
8C
8C
CC
FC
7C
ENDCHAR
STARTCHAR Ubreve
ENCODING 364
SWIDTH 673 0
DWIDTH 9 0
BBX 8 13 1 0
BITMAP
38
38
00
C3
C3
C3
C3
C3
C3
C3
C6
7E
3C
ENDCHAR
STARTCHAR ubreve
ENCODING 365
SWIDTH 562 0
DWIDTH 8 0
BBX 6 10 1 0
BITMAP
70
70
00
8C
8C
8C
8C
CC
FC
7C
ENDCHAR
STARTCHAR Uring
ENCODING 366
SWIDTH 673 0
DWIDTH 9 0
BBX 8 13 1 0
BITMAP
18
28
18
C3
C3
C3
C3
C3
C3
C3
C6
7E
3C
ENDCHAR
STARTCHAR uring
ENCODING 367
SWIDTH 562 0
DWIDTH 8 0
BBX 6 11 1 0
BITMAP
30
10
30
00
8C
8C
8C
8C
CC
FC
7C
ENDCHAR
STARTCHAR Uhungarumlaut
ENCODING 368
SWIDTH 673 0
DWIDTH 9 0
BBX 8 13 1 0
BITMAP
1C
3E
00
C3
C3
C3
C3
C3
C3
C3
C6
7E
3C
ENDCHAR
STARTCHAR uhungarumlaut
ENCODING 369
SWIDTH 562 0
DWIDTH 8 0
BBX 6 11 1 0
BITMAP
3C
6C
08
00
8C
8C
8C
8C
CC
FC
7C
ENDCHAR
STARTCHAR Uogonek
ENCODING 370
SWIDTH 673 0
DWIDTH 9 0
BBX 8 12 1 -2
BITMAP
C3
C3
C3
C3
C3
C3
C3
C6
7E
3C
30
38
ENDCHAR
STARTCHAR uogonek
ENCODING 371
SWIDTH 562 0
DWIDTH 8 0
BBX 7 9 1 -2
BITMAP
8C
8C
8C
8C
CC
FC
7C
04
0E
ENDCHAR
STARTCHAR Wcircumflex
ENCODING 372
SWIDTH 819 0
DWIDTH 11 0
BBX 10 13 1 0
BITMAP
0800
1C00
1400
CCC0
CCC0
CCC0
CCC0
CCC0
CCC0
CCC0
CCC0
FF80
7F80
ENDCHAR
STARTCHAR wcircumflex
ENCODING 373
SWIDTH 756 0
DWIDTH 11 0
BBX 9 11 1 0
BITMAP
0800
1C00
1400
0000
D980
D980
D980
D980
D980
FF80
7F00
ENDCHAR
STARTCHAR Ycircumflex
ENCODING 374
SWIDTH 620 0
DWIDTH 9 0
BBX 8 13 0 0
BITMAP
08
1C
14
C3
C3
C3
C3
63
7E
3C
18
18
18
ENDCHAR
STARTCHAR ycircumflex
ENCODING 375
SWIDTH 562 0
DWIDTH 8 0
BBX 6 13 1 -3
BITMAP
30
00
00
8C
8C
8C
8C
CC
FC
7C
0C
78
70
ENDCHAR
STARTCHAR Ydieresis
ENCODING 376
SWIDTH 620 0
DWIDTH 9 0
BBX 8 12 0 0
BITMAP
34
04
C3
C3
C3
C3
63
7E
3C
18
18
18
ENDCHAR
STARTCHAR Zacute
ENCODING 377
SWIDTH 586 0
DWIDTH 8 0
BBX 8 13 0 0
BITMAP
04
0E
08
FF
FE
0E
0C
1C
18
38
30
7F
7F
ENDCHAR
STARTCHAR zacute
ENCODING 378
SWIDTH 481 0
DWIDTH 7 0
BBX 6 10 0 0
BITMAP
1C
18
00
FC
F8
18
30
30
7C
7C
ENDCHAR
STARTCHAR Zdotaccent
ENCODING 379
SWIDTH 586 0
DWIDTH 8 0
BBX 8 12 0 0
BITMAP
18
00
FF
FE
0E
0C
1C
18
38
30
7F
7F
ENDCHAR
STARTCHAR zdotaccent
ENCODING 380
SWIDTH 481 0
DWIDTH 7 0
BBX 6 9 0 0
BITMAP
10
00
FC
F8
18
30
30
7C
7C
ENDCHAR
STARTCHAR Zcaron
ENCODING 381
SWIDTH 586 0
DWIDTH 8 0
BBX 8 12 0 0
BITMAP
1C
08
FF
FE
0E
0C
1C
18
38
30
7F
7F
ENDCHAR
STARTCHAR zcaron
ENCODING 382
SWIDTH 481 0
DWIDTH 7 0
BBX 6 11 0 0
BITMAP
28
38
10
00
FC
F8
18
30
30
7C
7C
ENDCHAR
STARTCHAR AEacute
ENCODING 508
SWIDTH 988 0
DWIDTH 14 0
BBX 12 12 1 0
BITMAP
0180
0300
3FF0
7FF0
E300
C300
C3E0
C3E0
FF00
FF00
C3F0
C3F0
ENDCHAR
STARTCHAR aeacute
ENCODING 509
SWIDTH 976 0
DWIDTH 14 0
BBX 13 11 0 0
BITMAP
0080
01C0
0100
1860
7FF8
6798
C3B0
C3E0
E7E0
7FF8
3DF0
ENDCHAR
STARTCHAR Oslashacute
ENCODING 510
SWIDTH 777 0
DWIDTH 11 0
BBX 11 14 0 0
BITMAP
0200
0700
0400
0000
1EC0
3F80
73C0
63C0
C6C0
CC60
78C0
79C0
3F80
7F00
ENDCHAR
STARTCHAR oslashacute
ENCODING 511
SWIDTH 579 0
DWIDTH 8 0
BBX 8 11 0 0
BITMAP
04
0C
08
18
7E
6E
CF
DB
F3
7E
7C
ENDCHAR
STARTCHAR dotlessj
ENCODING 567
SWIDTH 237 0
DWIDTH 3 0
BBX 5 10 -2 -3
BITMAP
18
18
18
18
18
18
18
30
F0
C0
ENDCHAR
STARTCHAR circumflex
ENCODING 710
SWIDTH 267 0
DWIDTH 4 0
BBX 3 2 0 7
BITMAP
60
A0
ENDCHAR
STARTCHAR caron
ENCODING 711
SWIDTH 267 0
DWIDTH 4 0
BBX 3 2 0 8
BITMAP
80
E0
ENDCHAR
STARTCHAR breve
ENCODING 728
SWIDTH 220 0
DWIDTH 3 0
BBX 3 2 0 8
BITMAP
A0
E0
ENDCHAR
STARTCHAR dotaccent
ENCODING 729
SWIDTH 125 0
DWIDTH 2 0
BBX 2 1 0 8
BITMAP
C0
ENDCHAR
STARTCHAR ring
ENCODING 730
SWIDTH 192 0
DWIDTH 3 0
BBX 3 3 0 7
BITMAP
C0
A0
C0
ENDCHAR
STARTCHAR ogonek
ENCODING 731
SWIDTH 212 0
DWIDTH 3 0
BBX 3 2 0 -2
BITMAP
80
E0
ENDCHAR
STARTCHAR tilde
ENCODING 732
SWIDTH 321 0
DWIDTH 5 0
BBX 4 3 0 7
BITMAP
50
F0
90
ENDCHAR
STARTCHAR hungarumlaut
ENCODING 733
SWIDTH 384 0
DWIDTH 5 0
BBX 5 3 0 7
BITMAP
68
D8
10
ENDCHAR
STARTCHAR uni0312
ENCODING 786
SWIDTH 192 0
DWIDTH 3 0
BBX 2 3 0 7
BITMAP
40
C0
40
ENDCHAR
STARTCHAR uni0315
ENCODING 789
SWIDTH 132 0
DWIDTH 2 0
BBX 2 3 0 7
BITMAP
C0
C0
40
ENDCHAR
STARTCHAR uni0326
ENCODING 806
SWIDTH 193 0
DWIDTH 3 0
BBX 2 3 0 -4
BITMAP
C0
40
40
ENDCHAR
STARTCHAR pi
ENCODING 960
SWIDTH 555 0
DWIDTH 8 0
BBX 8 7 0 0
BITMAP
FF
FF
6C
6C
6C
6C
6C
ENDCHAR
STARTCHAR Wgrave
ENCODING 7808
SWIDTH 819 0
DWIDTH 11 0
BBX 10 13 1 0
BITMAP
1000
3800
1800
CCC0
CCC0
CCC0
CCC0
CCC0
CCC0
CCC0
CCC0
FF80
7F80
ENDCHAR
STARTCHAR wgrave
ENCODING 7809
SWIDTH 756 0
DWIDTH 11 0
BBX 9 11 1 0
BITMAP
2000
3000
1000
0000
D980
D980
D980
D980
D980
FF80
7F00
ENDCHAR
STARTCHAR Wacute
ENCODING 7810
SWIDTH 819 0
DWIDTH 11 0
BBX 10 12 1 0
BITMAP
0600
0C00
CCC0
CCC0
CCC0
CCC0
CCC0
CCC0
CCC0
CCC0
FF80
7F80
ENDCHAR
STARTCHAR wacute
ENCODING 7811
SWIDTH 756 0
DWIDTH 11 0
BBX 9 10 1 0
BITMAP
0600
0C00
0000
D980
D980
D980
D980
D980
FF80
7F00
ENDCHAR
STARTCHAR Wdieresis
ENCODING 7812
SWIDTH 819 0
DWIDTH 11 0
BBX 10 12 1 0
BITMAP
1600
1000
CCC0
CCC0
CCC0
CCC0
CCC0
CCC0
CCC0
CCC0
FF80
7F80
ENDCHAR
STARTCHAR wdieresis
ENCODING 7813
SWIDTH 756 0
DWIDTH 11 0
BBX 9 9 1 0
BITMAP
3400
0400
D980
D980
D980
D980
D980
FF80
7F00
ENDCHAR
STARTCHAR Ygrave
ENCODING 7922
SWIDTH 620 0
DWIDTH 9 0
BBX 8 13 0 0
BITMAP
20
30
10
C3
C3
C3
C3
63
7E
3C
18
18
18
ENDCHAR
STARTCHAR ygrave
ENCODING 7923
SWIDTH 562 0
DWIDTH 8 0
BBX 6 13 1 -3
BITMAP
C0
60
00
8C
8C
8C
8C
CC
FC
7C
0C
78
70
ENDCHAR
STARTCHAR endash
ENCODING 8211
SWIDTH 418 0
DWIDTH 6 0
BBX 4 2 1 4
BITMAP
F0
F0
ENDCHAR
STARTCHAR emdash
ENCODING 8212
SWIDTH 719 0
DWIDTH 10 0
BBX 8 2 1 4
BITMAP
FF
FF
ENDCHAR
STARTCHAR quoteleft
ENCODING 8216
SWIDTH 246 0
DWIDTH 3 0
BBX 2 4 1 6
BITMAP
80
80
C0
C0
ENDCHAR
STARTCHAR quoteright
ENCODING 8217
SWIDTH 245 0
DWIDTH 3 0
BBX 2 4 1 6
BITMAP
80
C0
C0
80
ENDCHAR
STARTCHAR quotesinglbase
ENCODING 8218
SWIDTH 264 0
DWIDTH 4 0
BBX 2 3 1 -1
BITMAP
C0
C0
40
ENDCHAR
STARTCHAR quotedblleft
ENCODING 8220
SWIDTH 445 0
DWIDTH 6 0
BBX 5 4 1 6
BITMAP
90
90
F8
D0
ENDCHAR
STARTCHAR quotedblright
ENCODING 8221
SWIDTH 444 0
DWIDTH 6 0
BBX 5 4 1 6
BITMAP
90
F8
D0
90
ENDCHAR
STARTCHAR quotedblbase
ENCODING 8222
SWIDTH 463 0
DWIDTH 7 0
BBX 5 4 1 -2
BITMAP
D0
F8
58
10
ENDCHAR
STARTCHAR dagger
ENCODING 8224
SWIDTH 434 0
DWIDTH 6 0
BBX 6 12 0 -1
BITMAP
30
30
FC
FC
30
30
30
30
30
30
30
30
ENDCHAR
STARTCHAR daggerdbl
ENCODING 8225
SWIDTH 452 0
DWIDTH 6 0
BBX 5 12 1 -1
BITMAP
60
60
F8
F8
60
60
60
60
F8
F8
60
60
ENDCHAR
STARTCHAR bullet
ENCODING 8226
SWIDTH 354 0
DWIDTH 5 0
BBX 3 3 1 4
BITMAP
40
E0
E0
ENDCHAR
STARTCHAR ellipsis
ENCODING 8230
SWIDTH 789 0
DWIDTH 11 0
BBX 9 2 1 0
BITMAP
C980
DD80
ENDCHAR
STARTCHAR perthousand
ENCODING 8240
SWIDTH 998 0
DWIDTH 14 0
BBX 12 10 1 0
BITMAP
E200
A600
A400
A800
F800
1670
3F50
2D50
6D50
4770
ENDCHAR
STARTCHAR guilsinglleft
ENCODING 8249
SWIDTH 403 0
DWIDTH 6 0
BBX 5 6 0 1
BITMAP
18
38
70
E0
70
38
ENDCHAR
STARTCHAR guilsinglright
ENCODING 8250
SWIDTH 402 0
DWIDTH 6 0
BBX 4 7 1 0
BITMAP
80
C0
60
30
60
C0
80
ENDCHAR
STARTCHAR fraction
ENCODING 8260
SWIDTH 477 0
DWIDTH 7 0
BBX 7 10 0 0
BITMAP
06
04
0C
18
10
30
20
60
40
C0
ENDCHAR
STARTCHAR Euro
ENCODING 8364
SWIDTH 806 0
DWIDTH 11 0
BBX 10 10 1 0
BITMAP
0F00
1FC0
3880
FC00
FC00
7C00
F800
3080
1F80
0F80
ENDCHAR
STARTCHAR trademark
ENCODING 8482
SWIDTH 606 0
DWIDTH 9 0
BBX 7 4 1 6
BITMAP
FC
5A
5A
5A
ENDCHAR
STARTCHAR partialdiff
ENCODING 8706
SWIDTH 609 0
DWIDTH 9 0
BBX 7 11 1 0
BITMAP
30
18
1C
1C
7C
CE
C6
86
C6
FC
78
ENDCHAR
STARTCHAR product
ENCODING 8719
SWIDTH 632 0
DWIDTH 9 0
BBX 7 10 1 0
BITMAP
FE
FE
6C
6C
6C
6C
6C
6C
6C
6C
ENDCHAR
STARTCHAR minus
ENCODING 8722
SWIDTH 543 0
DWIDTH 8 0
BBX 6 2 1 4
BITMAP
FC
FC
ENDCHAR
STARTCHAR infinity
ENCODING 8734
SWIDTH 771 0
DWIDTH 11 0
BBX 9 6 1 2
BITMAP
6700
FF80
D980
8980
DD80
FF00
ENDCHAR
STARTCHAR approxequal
ENCODING 8776
SWIDTH 476 0
DWIDTH 7 0
BBX 5 6 1 2
BITMAP
58
F8
90
58
F8
B0
ENDCHAR
STARTCHAR notequal
ENCODING 8800
SWIDTH 512 0
DWIDTH 7 0
BBX 5 8 1 1
BITMAP
18
10
F8
F8
20
F8
60
C0
ENDCHAR
STARTCHAR fi
ENCODING 64257
SWIDTH 650 0
DWIDTH 9 0
BBX 9 11 0 0
BITMAP
1D00
3F80
6100
6000
FF00
FF00
6100
6100
6100
6100
6100
ENDCHAR
STARTCHAR fl
ENCODING 64258
SWIDTH 631 0
DWIDTH 9 0
BBX 8 11 0 0
BITMAP
1F
3F
63
63
FB
FB
63
63
63
63
63
ENDCHAR
STARTCHAR .notdef
ENCODING -1
SWIDTH 279 0
DWIDTH 4 0
BBX 1 1 0 0
BITMAP
00
ENDCHAR
STARTCHAR .null
ENCODING -1
SWIDTH 0 0
DWIDTH 0 0
BBX 1 1 0 0
BITMAP
00
ENDCHAR
STARTCHAR nonmarkingreturn
ENCODING -1
SWIDTH 279 0
DWIDTH 4 0
BBX 1 1 0 0
BITMAP
00
ENDCHAR
ENDFONT
